<mxfile host="app.diagrams.net" modified="2023-02-20T02:27:15.359Z" agent="5.0 (Windows NT 10.0; Win64; x64) AppleWebKit/537.36 (KHTML, like Gecko) Chrome/110.0.0.0 Safari/537.36" etag="u33eOmmy82BcRCYGYkMD" version="20.8.20" type="github">
  <diagram name="第 1 页" id="aHkgy0jFgQmC0n2R5i_t">
    <mxGraphModel dx="1341" dy="836" grid="1" gridSize="10" guides="1" tooltips="1" connect="1" arrows="1" fold="1" page="1" pageScale="1" pageWidth="1527" pageHeight="1569" math="0" shadow="0">
      <root>
        <mxCell id="0" />
        <mxCell id="1" parent="0" />
        <mxCell id="aEe4_rK6smSB3npgo4rP-3" value="" style="rounded=1;whiteSpace=wrap;html=1;fillColor=#d5e8d4;strokeColor=#82b366;" vertex="1" parent="1">
          <mxGeometry x="200" y="340" width="800" height="80" as="geometry" />
        </mxCell>
        <mxCell id="aEe4_rK6smSB3npgo4rP-4" value="业务" style="text;html=1;strokeColor=none;fillColor=none;align=center;verticalAlign=middle;whiteSpace=wrap;rounded=0;" vertex="1" parent="1">
          <mxGeometry x="230" y="365" width="60" height="30" as="geometry" />
        </mxCell>
        <mxCell id="aEe4_rK6smSB3npgo4rP-5" value="下单" style="rounded=1;whiteSpace=wrap;html=1;fillColor=#60a917;fontColor=#ffffff;strokeColor=#2D7600;" vertex="1" parent="1">
          <mxGeometry x="320" y="350" width="120" height="60" as="geometry" />
        </mxCell>
        <mxCell id="aEe4_rK6smSB3npgo4rP-6" value="取消订单" style="rounded=1;whiteSpace=wrap;html=1;fillColor=#60a917;fontColor=#ffffff;strokeColor=#2D7600;" vertex="1" parent="1">
          <mxGeometry x="480" y="350" width="120" height="60" as="geometry" />
        </mxCell>
        <mxCell id="aEe4_rK6smSB3npgo4rP-7" value="提交工单" style="rounded=1;whiteSpace=wrap;html=1;fillColor=#60a917;fontColor=#ffffff;strokeColor=#2D7600;" vertex="1" parent="1">
          <mxGeometry x="640" y="350" width="120" height="60" as="geometry" />
        </mxCell>
        <mxCell id="aEe4_rK6smSB3npgo4rP-9" value="" style="rounded=1;whiteSpace=wrap;html=1;" vertex="1" parent="1">
          <mxGeometry x="200" y="490" width="800" height="80" as="geometry" />
        </mxCell>
        <mxCell id="aEe4_rK6smSB3npgo4rP-10" value="应用" style="text;html=1;strokeColor=none;fillColor=none;align=center;verticalAlign=middle;whiteSpace=wrap;rounded=0;" vertex="1" parent="1">
          <mxGeometry x="230" y="515" width="60" height="30" as="geometry" />
        </mxCell>
        <mxCell id="aEe4_rK6smSB3npgo4rP-11" value="超区校验API" style="rounded=1;whiteSpace=wrap;html=1;" vertex="1" parent="1">
          <mxGeometry x="300" y="510" width="80" height="40" as="geometry" />
        </mxCell>
        <mxCell id="aEe4_rK6smSB3npgo4rP-13" value="下单API" style="rounded=1;whiteSpace=wrap;html=1;" vertex="1" parent="1">
          <mxGeometry x="390" y="510" width="80" height="40" as="geometry" />
        </mxCell>
        <mxCell id="aEe4_rK6smSB3npgo4rP-14" value="修改订单API" style="rounded=1;whiteSpace=wrap;html=1;" vertex="1" parent="1">
          <mxGeometry x="480" y="510" width="80" height="40" as="geometry" />
        </mxCell>
        <mxCell id="aEe4_rK6smSB3npgo4rP-15" value="取消订单API" style="rounded=1;whiteSpace=wrap;html=1;" vertex="1" parent="1">
          <mxGeometry x="570" y="510" width="80" height="40" as="geometry" />
        </mxCell>
        <mxCell id="aEe4_rK6smSB3npgo4rP-16" value="工单API" style="rounded=1;whiteSpace=wrap;html=1;" vertex="1" parent="1">
          <mxGeometry x="660" y="510" width="80" height="40" as="geometry" />
        </mxCell>
        <mxCell id="aEe4_rK6smSB3npgo4rP-17" value="账单API" style="rounded=1;whiteSpace=wrap;html=1;" vertex="1" parent="1">
          <mxGeometry x="750" y="510" width="80" height="40" as="geometry" />
        </mxCell>
        <mxCell id="aEe4_rK6smSB3npgo4rP-18" value="账单查询" style="rounded=1;whiteSpace=wrap;html=1;fillColor=#60a917;fontColor=#ffffff;strokeColor=#2D7600;" vertex="1" parent="1">
          <mxGeometry x="800" y="350" width="120" height="60" as="geometry" />
        </mxCell>
      </root>
    </mxGraphModel>
  </diagram>
</mxfile>
